<?xml version="1.0" encoding="UTF-8"?>
<!DOCTYPE svg PUBLIC "-//W3C//DTD SVG 1.1//EN" "http://www.w3.org/Graphics/SVG/1.1/DTD/svg11.dtd">
<svg xmlns="http://www.w3.org/2000/svg" version="1.1" width="512px" height="512px" style="shape-rendering:geometricPrecision; text-rendering:geometricPrecision; image-rendering:optimizeQuality; fill-rule:evenodd; clip-rule:evenodd" xmlns:xlink="http://www.w3.org/1999/xlink">
<g><path style="opacity:0.992" fill="#7070f1" d="M 501.5,192.5 C 500.903,191.861 500.07,191.528 499,191.5C 432.837,199.625 366.671,207.625 300.5,215.5C 236.573,207.545 172.573,199.878 108.5,192.5C 96.1785,191.085 83.8452,189.752 71.5,188.5C 59.6691,186.832 47.6691,185.332 35.5,184C 34.2625,183.768 33.2625,183.268 32.5,182.5C 98.818,174.752 165.151,167.085 231.5,159.5C 322.253,169.51 412.919,180.176 503.5,191.5C 503.043,192.298 502.376,192.631 501.5,192.5 Z"/></g>
<g><path style="opacity:0.992" fill="#5d5ce6" d="M 32.5,182.5 C 33.2625,183.268 34.2625,183.768 35.5,184C 47.6691,185.332 59.6691,186.832 71.5,188.5C 63.3478,206.477 61.3478,225.144 65.5,244.5C 66.5515,250.043 68.2181,255.376 70.5,260.5C 56.178,258.751 41.8447,257.085 27.5,255.5C 22.2492,250.685 18.7492,244.685 17,237.5C 15.4636,227.218 15.1303,216.885 16,206.5C 17.1353,198.399 20.302,191.233 25.5,185C 27.8076,184.009 30.1409,183.176 32.5,182.5 Z"/></g>
<g><path style="opacity:1" fill="#98dfd4" d="M 71.5,188.5 C 83.8452,189.752 96.1785,191.085 108.5,192.5C 101.763,204.001 98.7627,216.501 99.5,230C 99.7544,236.176 100.088,242.343 100.5,248.5C 88.8252,247.233 77.1585,245.899 65.5,244.5C 61.3478,225.144 63.3478,206.477 71.5,188.5 Z"/></g>
<g><path style="opacity:0.998" fill="#5e5ee9" d="M 108.5,192.5 C 172.573,199.878 236.573,207.545 300.5,215.5C 293.202,222.096 289.035,230.429 288,240.5C 287.181,246.681 287.347,252.681 288.5,258.5C 288.646,262.519 288.979,266.519 289.5,270.5C 226.474,263.413 163.474,256.08 100.5,248.5C 100.088,242.343 99.7544,236.176 99.5,230C 98.7627,216.501 101.763,204.001 108.5,192.5 Z"/></g>
<g><path style="opacity:1" fill="#d9d3d4" d="M 501.5,192.5 C 495.096,196.287 491.43,201.953 490.5,209.5C 427.108,216.451 363.774,223.951 300.5,232C 292.335,238.837 288.335,247.67 288.5,258.5C 287.347,252.681 287.181,246.681 288,240.5C 289.035,230.429 293.202,222.096 300.5,215.5C 366.671,207.625 432.837,199.625 499,191.5C 500.07,191.528 500.903,191.861 501.5,192.5 Z"/></g>
<g><path style="opacity:0.997" fill="#e9e9e9" d="M 490.5,209.5 C 488.505,219.362 488.005,229.362 489,239.5C 490.049,247.663 493.216,254.83 498.5,261C 504.244,262.317 504.577,263.817 499.5,265.5C 498.551,264.848 497.385,264.514 496,264.5C 432.011,272.226 368.011,279.893 304,287.5C 302.56,286.852 301.06,286.519 299.5,286.5C 294.639,282.11 291.306,276.776 289.5,270.5C 288.979,266.519 288.646,262.519 288.5,258.5C 288.335,247.67 292.335,238.837 300.5,232C 363.774,223.951 427.108,216.451 490.5,209.5 Z"/></g>
<g><path style="opacity:1" fill="#5cd2c7" d="M 65.5,244.5 C 77.1585,245.899 88.8252,247.233 100.5,248.5C 101.833,253.833 103.167,259.167 104.5,264.5C 93.2179,263.098 81.8846,261.765 70.5,260.5C 68.2181,255.376 66.5515,250.043 65.5,244.5 Z"/></g>
<g><path style="opacity:1" fill="#5b53d8" d="M 100.5,248.5 C 163.474,256.08 226.474,263.413 289.5,270.5C 291.306,276.776 294.639,282.11 299.5,286.5C 298.5,286.5 297.5,286.5 296.5,286.5C 278.784,284.874 261.117,282.874 243.5,280.5C 231.824,279.232 220.157,277.899 208.5,276.5C 173.834,272.5 139.167,268.5 104.5,264.5C 103.167,259.167 101.833,253.833 100.5,248.5 Z"/></g>
<g><path style="opacity:0.999" fill="#98dfd3" d="M 27.5,255.5 C 41.8447,257.085 56.178,258.751 70.5,260.5C 81.8846,261.765 93.2179,263.098 104.5,264.5C 139.167,268.5 173.834,272.5 208.5,276.5C 200.026,292.209 197.359,308.876 200.5,326.5C 139.12,319.86 77.7866,312.86 16.5,305.5C 15.1005,294.858 15.2671,284.192 17,273.5C 18.7492,266.315 22.2492,260.315 27.5,255.5 Z"/></g>
<g><path style="opacity:1" fill="#d9d4d4" d="M 499.5,265.5 C 494.445,269.604 491.445,274.937 490.5,281.5C 427.107,288.451 363.773,295.951 300.5,304C 292.335,310.837 288.335,319.67 288.5,330.5C 286.445,318.057 288.279,306.057 294,294.5C 295.5,291.667 297.667,289.5 300.5,288C 298.942,287.79 297.609,287.29 296.5,286.5C 297.5,286.5 298.5,286.5 299.5,286.5C 301.06,286.519 302.56,286.852 304,287.5C 368.011,279.893 432.011,272.226 496,264.5C 497.385,264.514 498.551,264.848 499.5,265.5 Z"/></g>
<g><path style="opacity:1" fill="#7070f1" d="M 208.5,276.5 C 220.157,277.899 231.824,279.232 243.5,280.5C 237.867,288.898 234.7,298.232 234,308.5C 233.5,315.826 233.334,323.159 233.5,330.5C 224.788,329.86 216.121,328.86 207.5,327.5C 205.048,327.539 203.048,328.206 201.5,329.5C 200.596,328.791 200.263,327.791 200.5,326.5C 197.359,308.876 200.026,292.209 208.5,276.5 Z"/></g>
<g><path style="opacity:1" fill="#98dfd4" d="M 243.5,280.5 C 261.117,282.874 278.784,284.874 296.5,286.5C 297.609,287.29 298.942,287.79 300.5,288C 297.667,289.5 295.5,291.667 294,294.5C 288.279,306.057 286.445,318.057 288.5,330.5C 288.5,332.5 288.5,334.5 288.5,336.5C 270.446,334.968 252.446,332.968 234.5,330.5C 234.167,330.5 233.833,330.5 233.5,330.5C 233.334,323.159 233.5,315.826 234,308.5C 234.7,298.232 237.867,288.898 243.5,280.5 Z"/></g>
<g><path style="opacity:0.997" fill="#e9e9e9" d="M 490.5,281.5 C 488.033,293.081 487.866,304.748 490,316.5C 491.355,325.314 495.855,331.648 503.5,335.5C 436.988,343.39 370.488,351.39 304,359.5C 302.56,358.852 301.06,358.519 299.5,358.5C 293.567,352.411 289.901,345.078 288.5,336.5C 288.5,334.5 288.5,332.5 288.5,330.5C 288.335,319.67 292.335,310.837 300.5,304C 363.773,295.951 427.107,288.451 490.5,281.5 Z"/></g>
<g><path style="opacity:1" fill="#5ed3c6" d="M 16.5,305.5 C 77.7866,312.86 139.12,319.86 200.5,326.5C 200.263,327.791 200.596,328.791 201.5,329.5C 202.298,336.227 204.298,342.56 207.5,348.5C 169.842,344.094 132.176,339.76 94.5,335.5C 84.0205,333.782 73.3539,332.449 62.5,331.5C 50.877,329.838 39.2104,328.504 27.5,327.5C 21.2216,321.61 17.5549,314.277 16.5,305.5 Z"/></g>
<g><path style="opacity:0.99" fill="#fec939" d="M 27.5,327.5 C 39.2104,328.504 50.877,329.838 62.5,331.5C 51.7531,349.03 46.7531,368.197 47.5,389C 47.7318,399.252 48.7318,409.418 50.5,419.5C 39.2971,418.978 28.1304,417.978 17,416.5C 15.0145,416.569 13.5145,417.235 12.5,418.5C 10.0652,412.515 8.56519,406.182 8,399.5C 6.4025,382.236 7.73584,365.236 12,348.5C 14.7511,339.601 19.9177,332.601 27.5,327.5 Z"/></g>
<g><path style="opacity:1" fill="#5a59dc" d="M 233.5,330.5 C 233.833,330.5 234.167,330.5 234.5,330.5C 234.935,338.132 236.601,345.465 239.5,352.5C 233.205,351.541 226.872,350.875 220.5,350.5C 216.343,349.551 212.01,348.884 207.5,348.5C 204.298,342.56 202.298,336.227 201.5,329.5C 203.048,328.206 205.048,327.539 207.5,327.5C 216.121,328.86 224.788,329.86 233.5,330.5 Z"/></g>
<g><path style="opacity:1" fill="#f7931e" d="M 62.5,331.5 C 73.3539,332.449 84.0205,333.782 94.5,335.5C 86.9534,346.633 82.4534,358.966 81,372.5C 78.6833,389.597 79.1833,406.597 82.5,423.5C 72.1891,422.28 61.8558,421.28 51.5,420.5C 52.9844,428.622 55.6511,436.288 59.5,443.5C 47.7194,442.237 36.0527,440.403 24.5,438C 18.3332,432.833 14.3332,426.333 12.5,418.5C 13.5145,417.235 15.0145,416.569 17,416.5C 28.1304,417.978 39.2971,418.978 50.5,419.5C 48.7318,409.418 47.7318,399.252 47.5,389C 46.7531,368.197 51.7531,349.03 62.5,331.5 Z"/></g>
<g><path style="opacity:1" fill="#5dd2c6" d="M 234.5,330.5 C 252.446,332.968 270.446,334.968 288.5,336.5C 289.901,345.078 293.567,352.411 299.5,358.5C 298.5,358.5 297.5,358.5 296.5,358.5C 281.784,357.207 267.117,355.54 252.5,353.5C 248.158,353.261 243.824,352.927 239.5,352.5C 236.601,345.465 234.935,338.132 234.5,330.5 Z"/></g>
<g><path style="opacity:1" fill="#fec939" d="M 94.5,335.5 C 132.176,339.76 169.842,344.094 207.5,348.5C 212.01,348.884 216.343,349.551 220.5,350.5C 212.937,363.404 208.77,377.404 208,392.5C 207.142,407.597 207.975,422.597 210.5,437.5C 167.852,432.653 125.185,427.987 82.5,423.5C 79.1833,406.597 78.6833,389.597 81,372.5C 82.4534,358.966 86.9534,346.633 94.5,335.5 Z"/></g>
<g><path style="opacity:1" fill="#dad4d4" d="M 503.5,335.5 C 494.851,338.991 489.018,345.325 486,354.5C 480.78,371.792 479.113,389.459 481,407.5C 481.869,422.132 487.369,434.632 497.5,445C 499.5,445.833 501.5,446.667 503.5,447.5C 476.896,451.326 450.229,454.659 423.5,457.5C 423.5,449.167 423.5,440.833 423.5,432.5C 440.477,430.028 450.977,420.361 455,403.5C 457.883,388.1 452.383,376.934 438.5,370C 433.254,368.494 427.921,368.161 422.5,369C 381.811,373.836 341.145,378.836 300.5,384C 294.083,386.964 289.583,391.797 287,398.5C 280.755,414.6 282.921,429.433 293.5,443C 296.593,445.464 300.093,446.964 304,447.5C 327.808,444.536 351.641,441.869 375.5,439.5C 375.5,445.167 375.5,450.833 375.5,456.5C 375.5,458.833 375.5,461.167 375.5,463.5C 350.232,466.825 324.899,469.492 299.5,471.5C 291.15,464.822 285.817,456.155 283.5,445.5C 276.991,420.673 278.491,396.339 288,372.5C 290.833,367 295,362.833 300.5,360C 298.942,359.79 297.609,359.29 296.5,358.5C 297.5,358.5 298.5,358.5 299.5,358.5C 301.06,358.519 302.56,358.852 304,359.5C 370.488,351.39 436.988,343.39 503.5,335.5 Z"/></g>
<g><path style="opacity:1" fill="#fec93a" d="M 252.5,353.5 C 267.117,355.54 281.784,357.207 296.5,358.5C 297.609,359.29 298.942,359.79 300.5,360C 295,362.833 290.833,367 288,372.5C 278.491,396.339 276.991,420.673 283.5,445.5C 269.743,444.239 256.076,442.572 242.5,440.5C 237.949,416.634 238.782,392.967 245,369.5C 246.711,363.748 249.211,358.414 252.5,353.5 Z"/></g>
<g><path style="opacity:1" fill="#e9e9e9" d="M 423.5,432.5 C 423.5,422.167 423.5,411.833 423.5,401.5C 428.319,400.434 433.319,399.6 438.5,399C 443.774,395.702 444.774,391.369 441.5,386C 437.858,383.592 433.858,382.925 429.5,384C 406.833,387 384.167,390 361.5,393C 356.188,397.761 356.188,402.428 361.5,407C 366.155,407.499 370.821,407.666 375.5,407.5C 375.5,418.167 375.5,428.833 375.5,439.5C 351.641,441.869 327.808,444.536 304,447.5C 300.093,446.964 296.593,445.464 293.5,443C 282.921,429.433 280.755,414.6 287,398.5C 289.583,391.797 294.083,386.964 300.5,384C 341.145,378.836 381.811,373.836 422.5,369C 427.921,368.161 433.254,368.494 438.5,370C 452.383,376.934 457.883,388.1 455,403.5C 450.977,420.361 440.477,430.028 423.5,432.5 Z"/></g>
<g><path style="opacity:1" fill="#dad3d3" d="M 423.5,401.5 C 417.301,401.652 411.301,402.318 405.5,403.5C 395.279,404.208 385.279,405.541 375.5,407.5C 370.821,407.666 366.155,407.499 361.5,407C 356.188,402.428 356.188,397.761 361.5,393C 384.167,390 406.833,387 429.5,384C 433.858,382.925 437.858,383.592 441.5,386C 444.774,391.369 443.774,395.702 438.5,399C 433.319,399.6 428.319,400.434 423.5,401.5 Z"/></g>
<g><path style="opacity:1" fill="#c1272d" d="M 423.5,401.5 C 423.5,411.833 423.5,422.167 423.5,432.5C 423.5,440.833 423.5,449.167 423.5,457.5C 423.667,470.171 423.5,482.838 423,495.5C 415.397,485.28 407.564,475.28 399.5,465.5C 391.416,477.999 383.583,490.666 376,503.5C 375.5,490.171 375.333,476.837 375.5,463.5C 375.5,461.167 375.5,458.833 375.5,456.5C 398.878,446.052 408.878,428.385 405.5,403.5C 411.301,402.318 417.301,401.652 423.5,401.5 Z"/></g>
<g><path style="opacity:1" fill="#ec1d24" d="M 405.5,403.5 C 408.878,428.385 398.878,446.052 375.5,456.5C 375.5,450.833 375.5,445.167 375.5,439.5C 375.5,428.833 375.5,418.167 375.5,407.5C 385.279,405.541 395.279,404.208 405.5,403.5 Z"/></g>
<g><path style="opacity:1" fill="#f15b23" d="M 82.5,423.5 C 84.4022,431.447 87.0689,439.114 90.5,446.5C 80.1442,445.72 69.8109,444.72 59.5,443.5C 55.6511,436.288 52.9844,428.622 51.5,420.5C 61.8558,421.28 72.1891,422.28 82.5,423.5 Z"/></g>
<g><path style="opacity:1" fill="#f7931e" d="M 220.5,350.5 C 226.872,350.875 233.205,351.541 239.5,352.5C 243.824,352.927 248.158,353.261 252.5,353.5C 249.211,358.414 246.711,363.748 245,369.5C 238.782,392.967 237.949,416.634 242.5,440.5C 232.19,439.335 221.857,438.335 211.5,437.5C 211.857,441.263 212.69,444.93 214,448.5C 216.452,453.068 218.618,457.735 220.5,462.5C 177.025,457.315 133.692,451.982 90.5,446.5C 87.0689,439.114 84.4022,431.447 82.5,423.5C 125.185,427.987 167.852,432.653 210.5,437.5C 207.975,422.597 207.142,407.597 208,392.5C 208.77,377.404 212.937,363.404 220.5,350.5 Z"/></g>
<g><path style="opacity:1" fill="#f15b23" d="M 242.5,440.5 C 244.668,449.345 248.001,457.679 252.5,465.5C 241.819,464.647 231.152,463.647 220.5,462.5C 218.618,457.735 216.452,453.068 214,448.5C 212.69,444.93 211.857,441.263 211.5,437.5C 221.857,438.335 232.19,439.335 242.5,440.5 Z"/></g>
<g><path style="opacity:1" fill="#f7941f" d="M 242.5,440.5 C 256.076,442.572 269.743,444.239 283.5,445.5C 285.817,456.155 291.15,464.822 299.5,471.5C 283.647,469.894 267.98,467.894 252.5,465.5C 248.001,457.679 244.668,449.345 242.5,440.5 Z"/></g>
</svg>
