<?xml version="1.0" encoding="UTF-8"?>
<!DOCTYPE svg PUBLIC "-//W3C//DTD SVG 1.1//EN" "http://www.w3.org/Graphics/SVG/1.1/DTD/svg11.dtd">
<svg xmlns="http://www.w3.org/2000/svg" version="1.1" width="512px" height="512px" style="shape-rendering:geometricPrecision; text-rendering:geometricPrecision; image-rendering:optimizeQuality; fill-rule:evenodd; clip-rule:evenodd" xmlns:xlink="http://www.w3.org/1999/xlink">
<g><path style="opacity:0.983" fill="#030201" d="M 311.5,94.5 C 307.624,93.7954 305.124,91.4621 304,87.5C 303.5,73.8374 303.333,60.1707 303.5,46.5C 273.833,46.5 244.167,46.5 214.5,46.5C 214.667,66.5028 214.5,86.5028 214,106.5C 212.13,109.018 209.63,110.352 206.5,110.5C 198.5,108.167 190.5,105.833 182.5,103.5C 174.762,105.635 167.096,107.968 159.5,110.5C 156.889,110.444 154.722,109.444 153,107.5C 151.548,87.2207 151.048,66.8874 151.5,46.5C 132.833,46.5 114.167,46.5 95.5,46.5C 84.5,46.5 73.5,46.5 62.5,46.5C 62.5,108.167 62.5,169.833 62.5,231.5C 73.5,231.5 84.5,231.5 95.5,231.5C 99.9843,232.316 102.318,234.983 102.5,239.5C 107.179,239.666 111.845,239.499 116.5,239C 126.863,228.303 137.529,217.97 148.5,208C 173.833,207.333 199.167,207.333 224.5,208C 240.904,211.1 248.237,221.1 246.5,238C 246.333,242.167 246.167,246.333 246,250.5C 244.833,251.667 243.667,252.833 242.5,254C 230.167,254.333 217.833,254.667 205.5,255C 211.648,260.571 217.981,265.904 224.5,271C 237.167,271.667 249.833,271.667 262.5,271C 272.458,264.687 283.125,260.02 294.5,257C 297.482,256.502 300.482,256.335 303.5,256.5C 303.333,211.165 303.5,165.832 304,120.5C 305.707,117.41 308.207,115.41 311.5,114.5C 315.238,114.952 317.738,116.952 319,120.5C 319.333,167.5 319.667,214.5 320,261.5C 325.316,267.115 327.65,273.782 327,281.5C 326.417,283.002 325.584,284.335 324.5,285.5C 307.5,294 290.5,302.5 273.5,311C 254.056,316.704 234.556,322.204 215,327.5C 184.176,322.279 153.343,317.113 122.5,312C 116.175,311.5 109.842,311.334 103.5,311.5C 103.766,315.605 103.266,319.605 102,323.5C 100.681,325.487 98.8477,326.654 96.5,327C 66.1667,327.667 35.8333,327.667 5.5,327C 3.11327,326.436 1.11327,325.27 -0.5,323.5C -0.5,320.833 -0.5,318.167 -0.5,315.5C 1.34032,313.331 3.67365,311.998 6.5,311.5C 33.5,311.5 60.5,311.5 87.5,311.5C 87.5,306.167 87.5,300.833 87.5,295.5C 87.5,279.167 87.5,262.833 87.5,246.5C 60.3282,246.169 33.3282,246.502 6.5,247.5C 3.72376,246.911 1.39043,245.578 -0.5,243.5C -0.5,240.833 -0.5,238.167 -0.5,235.5C 0.316435,233.856 1.64977,232.69 3.5,232C 18.1629,231.5 32.8295,231.333 47.5,231.5C 47.3333,166.166 47.5,100.832 48,35.5C 48.3742,34.5838 48.8742,33.7504 49.5,33C 138.085,31.3387 226.752,31.0054 315.5,32C 317.487,33.3189 318.654,35.1523 319,37.5C 319.667,54.5 319.667,71.5 319,88.5C 318.137,92.5181 315.637,94.5181 311.5,94.5 Z"/></g>
<g><path style="opacity:1" fill="#fec725" d="M 95.5,46.5 C 95.5,76.1667 95.5,105.833 95.5,135.5C 91.8183,135.335 88.1516,135.501 84.5,136C 82.6667,137.167 81.1667,138.667 80,140.5C 79.8333,146.667 79.6667,152.833 79.5,159C 79.3696,165.935 79.8696,172.768 81,179.5C 81.8333,180.333 82.6667,181.167 83.5,182C 87.4862,182.499 91.4862,182.666 95.5,182.5C 95.5,198.833 95.5,215.167 95.5,231.5C 84.5,231.5 73.5,231.5 62.5,231.5C 62.5,169.833 62.5,108.167 62.5,46.5C 73.5,46.5 84.5,46.5 95.5,46.5 Z"/></g>
<g><path style="opacity:1" fill="#fedd7b" d="M 95.5,46.5 C 114.167,46.5 132.833,46.5 151.5,46.5C 151.048,66.8874 151.548,87.2207 153,107.5C 154.722,109.444 156.889,110.444 159.5,110.5C 167.096,107.968 174.762,105.635 182.5,103.5C 190.5,105.833 198.5,108.167 206.5,110.5C 209.63,110.352 212.13,109.018 214,106.5C 214.5,86.5028 214.667,66.5028 214.5,46.5C 244.167,46.5 273.833,46.5 303.5,46.5C 303.333,60.1707 303.5,73.8374 304,87.5C 305.124,91.4621 307.624,93.7954 311.5,94.5C 311.5,101.167 311.5,107.833 311.5,114.5C 308.207,115.41 305.707,117.41 304,120.5C 303.5,165.832 303.333,211.165 303.5,256.5C 300.482,256.335 297.482,256.502 294.5,257C 283.125,260.02 272.458,264.687 262.5,271C 249.833,271.667 237.167,271.667 224.5,271C 217.981,265.904 211.648,260.571 205.5,255C 217.833,254.667 230.167,254.333 242.5,254C 243.667,252.833 244.833,251.667 246,250.5C 246.167,246.333 246.333,242.167 246.5,238C 248.237,221.1 240.904,211.1 224.5,208C 199.167,207.333 173.833,207.333 148.5,208C 137.529,217.97 126.863,228.303 116.5,239C 111.845,239.499 107.179,239.666 102.5,239.5C 102.318,234.983 99.9843,232.316 95.5,231.5C 95.5,215.167 95.5,198.833 95.5,182.5C 125.502,182.667 155.502,182.5 185.5,182C 187.667,181.167 189.167,179.667 190,177.5C 190.667,164.833 190.667,152.167 190,139.5C 188.681,137.513 186.848,136.346 184.5,136C 154.835,135.5 125.169,135.333 95.5,135.5C 95.5,105.833 95.5,76.1667 95.5,46.5 Z"/></g>
<g><path style="opacity:1" fill="#fdbb84" d="M 166.5,46.5 C 177.5,46.5 188.5,46.5 199.5,46.5C 199.833,61.8478 199.499,77.1811 198.5,92.5C 193.551,90.6282 188.551,88.9616 183.5,87.5C 178.045,88.7626 172.712,90.4293 167.5,92.5C 166.501,77.1811 166.167,61.8478 166.5,46.5 Z"/></g>
<g><path style="opacity:1" fill="#020201" d="M 95.5,135.5 C 125.169,135.333 154.835,135.5 184.5,136C 186.848,136.346 188.681,137.513 190,139.5C 190.667,152.167 190.667,164.833 190,177.5C 189.167,179.667 187.667,181.167 185.5,182C 155.502,182.5 125.502,182.667 95.5,182.5C 91.4862,182.666 87.4862,182.499 83.5,182C 82.6667,181.167 81.8333,180.333 81,179.5C 79.8696,172.768 79.3696,165.935 79.5,159C 79.6667,152.833 79.8333,146.667 80,140.5C 81.1667,138.667 82.6667,137.167 84.5,136C 88.1516,135.501 91.8183,135.335 95.5,135.5 Z"/></g>
<g><path style="opacity:1" fill="#eeeded" d="M 94.5,150.5 C 121.5,150.5 148.5,150.5 175.5,150.5C 175.5,156.167 175.5,161.833 175.5,167.5C 148.5,167.5 121.5,167.5 94.5,167.5C 94.5,161.833 94.5,156.167 94.5,150.5 Z"/></g>
<g><path style="opacity:1" fill="#fce6d3" d="M 231.5,231.5 C 218.167,231.5 204.833,231.5 191.5,231.5C 191.5,234.167 191.5,236.833 191.5,239.5C 186.891,238.974 182.557,239.641 178.5,241.5C 175.221,244.396 174.721,247.73 177,251.5C 191.212,263.381 205.712,274.881 220.5,286C 235.833,286.667 251.167,286.667 266.5,286C 276.322,279.255 286.989,274.421 298.5,271.5C 299.552,271.351 300.552,271.517 301.5,272C 290.833,277.333 280.167,282.667 269.5,288C 251.065,293.295 232.565,298.462 214,303.5C 183.183,298.28 152.349,293.114 121.5,288C 115.175,287.5 108.842,287.334 102.5,287.5C 102.5,276.5 102.5,265.5 102.5,254.5C 109.175,254.666 115.842,254.5 122.5,254C 132.833,243.667 143.167,233.333 153.5,223C 177.167,222.333 200.833,222.333 224.5,223C 228.892,224.219 231.226,227.052 231.5,231.5 Z"/></g>
<g><path style="opacity:1" fill="#fed3ad" d="M 231.5,231.5 C 231.5,234.167 231.5,236.833 231.5,239.5C 218.167,239.5 204.833,239.5 191.5,239.5C 191.5,236.833 191.5,234.167 191.5,231.5C 204.833,231.5 218.167,231.5 231.5,231.5 Z"/></g>
<g><path style="opacity:1" fill="#fd855f" d="M 87.5,295.5 C 60.5,295.5 33.5,295.5 6.5,295.5C 6.5,279.5 6.5,263.5 6.5,247.5C 33.3282,246.502 60.3282,246.169 87.5,246.5C 87.5,262.833 87.5,279.167 87.5,295.5 Z"/></g>
<g><path style="opacity:1" fill="#f8cda9" d="M 298.5,271.5 C 302.636,269.833 306.47,270.5 310,273.5C 310.617,274.449 310.451,275.282 309.5,276C 296.167,282.667 282.833,289.333 269.5,296C 250.678,301.247 231.845,306.414 213,311.5C 182.139,306.495 151.306,301.329 120.5,296C 114.509,295.501 108.509,295.334 102.5,295.5C 102.5,292.833 102.5,290.167 102.5,287.5C 108.842,287.334 115.175,287.5 121.5,288C 152.349,293.114 183.183,298.28 214,303.5C 232.565,298.462 251.065,293.295 269.5,288C 280.167,282.667 290.833,277.333 301.5,272C 300.552,271.517 299.552,271.351 298.5,271.5 Z"/></g>
<g><path style="opacity:1" fill="#ff6838" d="M 6.5,295.5 C 33.5,295.5 60.5,295.5 87.5,295.5C 87.5,300.833 87.5,306.167 87.5,311.5C 60.5,311.5 33.5,311.5 6.5,311.5C 6.5,306.167 6.5,300.833 6.5,295.5 Z"/></g>
<g><path style="opacity:0.969" fill="#020101" d="M 511.5,395.5 C 511.5,398.167 511.5,400.833 511.5,403.5C 510.038,404.458 508.705,405.624 507.5,407C 506.207,407.49 504.873,407.657 503.5,407.5C 489.163,407.667 474.829,407.5 460.5,407C 449.529,397.03 438.863,386.697 428.5,376C 404.167,375.333 379.833,375.333 355.5,376C 352.603,377.715 351.269,380.215 351.5,383.5C 351.5,386.167 351.5,388.833 351.5,391.5C 364.833,391.5 378.167,391.5 391.5,391.5C 397.149,392.462 399.649,395.796 399,401.5C 398.215,403.286 397.049,404.786 395.5,406C 370.617,417.275 345.617,428.275 320.5,439C 305.833,439.667 291.167,439.667 276.5,439C 265.559,431.363 253.559,426.196 240.5,423.5C 238.011,423.298 235.677,423.798 233.5,425C 232.289,425.893 232.289,426.726 233.5,427.5C 247.167,434.333 260.833,441.167 274.5,448C 292.274,453.369 310.108,458.536 328,463.5C 357.758,457.957 387.592,452.79 417.5,448C 446.336,447.832 475.003,447.332 503.5,446.5C 506.881,447.182 509.548,448.849 511.5,451.5C 511.5,454.167 511.5,456.833 511.5,459.5C 510.038,460.458 508.705,461.624 507.5,463C 479.833,463.333 452.167,463.667 424.5,464C 394.149,468.892 363.816,473.892 333.5,479C 329.833,479.667 326.167,479.667 322.5,479C 304.121,473.822 285.788,468.489 267.5,463C 250.098,454.55 232.932,445.716 216,436.5C 213.497,418.877 221.164,408.877 239,406.5C 247.438,407.485 255.605,409.485 263.5,412.5C 265.783,398.723 273.95,392.057 288,392.5C 303.133,394.148 316.966,399.315 329.5,408C 336.5,408.667 343.5,408.667 350.5,408C 346.833,407.667 343.167,407.333 339.5,407C 336.906,405.661 335.406,403.494 335,400.5C 334.213,392.119 334.546,383.786 336,375.5C 339.981,365.852 347.148,360.352 357.5,359C 382.5,358.333 407.5,358.333 432.5,359C 434.246,359.471 435.913,360.138 437.5,361C 447.167,370.667 456.833,380.333 466.5,390C 479.167,390.333 491.833,390.667 504.5,391C 507.585,391.53 509.918,393.03 511.5,395.5 Z"/></g>
<g><path style="opacity:1" fill="#fee8d5" d="M 503.5,407.5 C 503.5,418.167 503.5,428.833 503.5,439.5C 475.498,439.333 447.498,439.5 419.5,440C 388.813,445.059 358.146,450.226 327.5,455.5C 309.122,450.429 290.789,445.262 272.5,440C 261.615,434.726 250.949,429.226 240.5,423.5C 253.559,426.196 265.559,431.363 276.5,439C 291.167,439.667 305.833,439.667 320.5,439C 345.617,428.275 370.617,417.275 395.5,406C 397.049,404.786 398.215,403.286 399,401.5C 399.649,395.796 397.149,392.462 391.5,391.5C 391.5,388.833 391.5,386.167 391.5,383.5C 378.167,383.5 364.833,383.5 351.5,383.5C 351.269,380.215 352.603,377.715 355.5,376C 379.833,375.333 404.167,375.333 428.5,376C 438.863,386.697 449.529,397.03 460.5,407C 474.829,407.5 489.163,407.667 503.5,407.5 Z"/></g>
<g><path style="opacity:1" fill="#facfab" d="M 351.5,383.5 C 364.833,383.5 378.167,383.5 391.5,383.5C 391.5,386.167 391.5,388.833 391.5,391.5C 378.167,391.5 364.833,391.5 351.5,391.5C 351.5,388.833 351.5,386.167 351.5,383.5 Z"/></g>
<g><path style="opacity:1" fill="#f3c9a5" d="M 283.5,408.5 C 296.993,409.721 309.326,414.221 320.5,422C 313.943,423.586 307.276,423.92 300.5,423C 293.833,419.333 287.167,415.667 280.5,412C 281.71,410.961 282.71,409.794 283.5,408.5 Z"/></g>
<g><path style="opacity:1" fill="#fbd0ac" d="M 240.5,423.5 C 250.949,429.226 261.615,434.726 272.5,440C 290.789,445.262 309.122,450.429 327.5,455.5C 358.146,450.226 388.813,445.059 419.5,440C 447.498,439.5 475.498,439.333 503.5,439.5C 503.5,441.833 503.5,444.167 503.5,446.5C 475.003,447.332 446.336,447.832 417.5,448C 387.592,452.79 357.758,457.957 328,463.5C 310.108,458.536 292.274,453.369 274.5,448C 260.833,441.167 247.167,434.333 233.5,427.5C 232.289,426.726 232.289,425.893 233.5,425C 235.677,423.798 238.011,423.298 240.5,423.5 Z"/></g>
</svg>
