<?xml version="1.0" encoding="UTF-8"?>
<!DOCTYPE svg PUBLIC "-//W3C//DTD SVG 1.1//EN" "http://www.w3.org/Graphics/SVG/1.1/DTD/svg11.dtd">
<svg xmlns="http://www.w3.org/2000/svg" version="1.1" width="512px" height="512px" style="shape-rendering:geometricPrecision; text-rendering:geometricPrecision; image-rendering:optimizeQuality; fill-rule:evenodd; clip-rule:evenodd" xmlns:xlink="http://www.w3.org/1999/xlink">
<g><path style="opacity:0.982" fill="#2e0904" d="M 204.5,160.5 C 205.039,157.958 206.372,155.792 208.5,154C 220.162,153.5 231.829,153.333 243.5,153.5C 244.494,147.544 245.161,141.544 245.5,135.5C 231.842,133.668 218.342,131.002 205,127.5C 197.789,137.923 191.622,148.923 186.5,160.5C 173.095,183.757 159.429,206.924 145.5,230C 142.366,230.79 139.366,230.457 136.5,229C 99.6678,205.75 62.6678,182.75 25.5,160C 21.9561,157.055 21.1228,153.555 23,149.5C 29.4636,139.405 36.2969,129.572 43.5,120C 21.6928,99.2675 17.5262,75.4341 31,48.5C 33.4896,44.9899 36.6562,43.9899 40.5,45.5C 42.4613,47.2916 43.7946,49.4582 44.5,52C 41.7426,57.938 39.5759,64.1046 38,70.5C 36.5529,85.1603 41.2196,97.4936 52,107.5C 54.0803,105.007 55.9136,102.341 57.5,99.5C 43.8945,83.6529 44.2278,68.1529 58.5,53C 62.0066,50.746 65.6733,48.746 69.5,47C 77.3069,46.2449 84.9736,46.5782 92.5,48C 94.1667,45.6667 95.8333,43.3333 97.5,41C 93.6138,39.4728 90.1138,37.3061 87,34.5C 85.872,32.6547 85.372,30.6547 85.5,28.5C 87.0811,25.4134 89.5811,23.7467 93,23.5C 97.1388,23.9352 100.972,25.2686 104.5,27.5C 106.85,25.3131 108.85,22.8131 110.5,20C 113.742,17.6754 117.076,17.3421 120.5,19C 154.916,40.6252 189.416,62.1252 224,83.5C 225.457,86.366 225.79,89.366 225,92.5C 220.707,99.5847 216.54,106.751 212.5,114C 224.403,117.416 236.403,119.583 248.5,120.5C 251.859,114.211 256.359,113.211 262,117.5C 262.923,119.034 263.423,120.701 263.5,122.5C 261,138.833 258.5,155.167 256,171.5C 253.435,177.135 249.268,178.635 243.5,176C 242.214,173.978 241.214,171.811 240.5,169.5C 229.88,168.125 219.214,167.292 208.5,167C 206.266,165.362 204.933,163.195 204.5,160.5 Z M 78.5,59.5 C 80.0858,60.1481 81.7525,60.6481 83.5,61C 77.2962,69.2394 71.4628,77.7394 66,86.5C 59.3575,72.4532 63.5241,63.4532 78.5,59.5 Z"/></g>
<g><path style="opacity:0.968" fill="#2e0a07" d="M 73.5,28.5 C 74.0414,31.6516 73.0414,34.1516 70.5,36C 65.7766,37.1956 61.4432,39.1956 57.5,42C 53.4695,42.8178 50.1361,41.6511 47.5,38.5C 46.6523,32.1655 49.3189,27.9988 55.5,26C 59.1359,24.7324 62.8026,23.5658 66.5,22.5C 70.7562,22.4403 73.0896,24.4403 73.5,28.5 Z"/></g>
<g><path style="opacity:0.995" fill="#e9e8f4" d="M 85.5,28.5 C 85.372,30.6547 85.872,32.6547 87,34.5C 90.1138,37.3061 93.6138,39.4728 97.5,41C 95.8333,43.3333 94.1667,45.6667 92.5,48C 84.9736,46.5782 77.3069,46.2449 69.5,47C 65.6733,48.746 62.0066,50.746 58.5,53C 44.2278,68.1529 43.8945,83.6529 57.5,99.5C 55.9136,102.341 54.0803,105.007 52,107.5C 41.2196,97.4936 36.5529,85.1603 38,70.5C 39.5759,64.1046 41.7426,57.938 44.5,52C 43.7946,49.4582 42.4613,47.2916 40.5,45.5C 42.5272,42.8061 44.8605,40.4728 47.5,38.5C 50.1361,41.6511 53.4695,42.8178 57.5,42C 61.4432,39.1956 65.7766,37.1956 70.5,36C 73.0414,34.1516 74.0414,31.6516 73.5,28.5C 77.4522,27.3216 81.4522,27.3216 85.5,28.5 Z"/></g>
<g><path style="opacity:1" fill="#97d708" d="M 117.5,35.5 C 148.315,53.4064 178.649,72.0731 208.5,91.5C 189.404,125.365 170.071,159.032 150.5,192.5C 117.966,172.135 85.299,151.968 52.5,132C 74.5483,100.064 96.215,67.8969 117.5,35.5 Z"/></g>
<g><path style="opacity:1" fill="#2f0c04" d="M 170.5,111.5 C 177.669,110.513 181.169,113.513 181,120.5C 176.667,128.167 172.333,135.833 168,143.5C 159.378,147.53 155.378,144.863 156,135.5C 160.593,127.306 165.427,119.306 170.5,111.5 Z"/></g>
<g><path style="opacity:0.992" fill="#ececf7" d="M 204.5,160.5 C 198.5,160.5 192.5,160.5 186.5,160.5C 191.622,148.923 197.789,137.923 205,127.5C 218.342,131.002 231.842,133.668 245.5,135.5C 245.161,141.544 244.494,147.544 243.5,153.5C 231.829,153.333 220.162,153.5 208.5,154C 206.372,155.792 205.039,157.958 204.5,160.5 Z"/></g>
<g><path style="opacity:0.935" fill="#2c0602" d="M 273.5,131.5 C 283.855,131.038 286.855,135.538 282.5,145C 272.961,148.66 268.794,145.493 270,135.5C 271.376,134.295 272.542,132.962 273.5,131.5 Z"/></g>
<g><path style="opacity:0.917" fill="#2d0602" d="M 307.5,138.5 C 313.755,137.261 317.422,139.761 318.5,146C 316.37,153.479 311.87,155.312 305,151.5C 302.35,146.266 303.183,141.933 307.5,138.5 Z"/></g>
<g><path style="opacity:1" fill="#e9e8f3" d="M 44.5,143.5 C 77.9447,163.727 111.278,184.227 144.5,205C 142.542,207.748 140.709,210.582 139,213.5C 105.749,192.792 72.5824,171.958 39.5,151C 41.3887,148.618 43.0553,146.118 44.5,143.5 Z"/></g>
<g><path style="opacity:0.904" fill="#2c0702" d="M 338.5,153.5 C 344.905,152.527 348.571,155.193 349.5,161.5C 347.969,168.044 343.969,170.211 337.5,168C 332.195,162.737 332.528,157.904 338.5,153.5 Z"/></g>
<g><path style="opacity:0.941" fill="#2d0602" d="M 270.5,158.5 C 277.657,158.155 280.824,161.488 280,168.5C 277.612,173.226 273.778,174.726 268.5,173C 265.606,170.091 264.773,166.591 266,162.5C 267.25,160.807 268.75,159.473 270.5,158.5 Z"/></g>
<g><path style="opacity:0.913" fill="#2d0602" d="M 365.5,175.5 C 374.08,176.338 376.746,180.671 373.5,188.5C 366.687,193.1 362.02,191.433 359.5,183.5C 360.075,179.651 362.075,176.984 365.5,175.5 Z"/></g>
<g><path style="opacity:0.914" fill="#2d0602" d="M 301.5,183.5 C 309.164,182.666 312.664,186 312,193.5C 308.196,199.377 303.529,200.044 298,195.5C 296.593,190.556 297.759,186.556 301.5,183.5 Z"/></g>
<g><path style="opacity:0.926" fill="#2c0602" d="M 383.5,204.5 C 393.855,204.038 396.855,208.538 392.5,218C 383.406,221.235 379.239,218.068 380,208.5C 380.69,206.65 381.856,205.316 383.5,204.5 Z"/></g>
<g><path style="opacity:0.933" fill="#2d0602" d="M 323.5,217.5 C 334.472,216.968 337.472,221.468 332.5,231C 325.445,234.139 321.112,231.973 319.5,224.5C 320.071,221.687 321.404,219.354 323.5,217.5 Z"/></g>
<g><path style="opacity:0.922" fill="#2c0602" d="M 399.5,235.5 C 407.658,236.477 410.158,240.811 407,248.5C 400.038,253.435 395.538,251.768 393.5,243.5C 393.685,239.333 395.685,236.666 399.5,235.5 Z"/></g>
<g><path style="opacity:0.93" fill="#2c0602" d="M 336.5,255.5 C 346.554,255.379 349.554,259.879 345.5,269C 335.961,272.66 331.794,269.493 333,259.5C 333.69,257.65 334.856,256.316 336.5,255.5 Z"/></g>
<g><path style="opacity:0.973" fill="#2d0703" d="M 433.5,375.5 C 431.84,373.678 430.84,371.511 430.5,369C 433.496,364.171 435.83,359.005 437.5,353.5C 419.135,358.007 405.135,368.34 395.5,384.5C 396.167,384.833 396.833,385.167 397.5,385.5C 402.412,383.927 407.412,383.427 412.5,384C 414.35,384.69 415.684,385.856 416.5,387.5C 416.846,390.602 416.179,393.435 414.5,396C 407.462,398.921 400.129,400.088 392.5,399.5C 392.333,415.17 392.5,430.837 393,446.5C 397.294,449.07 401.127,452.237 404.5,456C 418.439,458.611 429.106,465.944 436.5,478C 454.167,478.333 471.833,478.667 489.5,479C 494.885,484.111 494.552,488.777 488.5,493C 333.167,493.667 177.833,493.667 22.5,493C 16.4479,488.777 16.1145,484.111 21.5,479C 39.8333,478.667 58.1667,478.333 76.5,478C 82.2799,470.266 89.9466,465.266 99.5,463C 103.887,456.891 109.387,452.058 116,448.5C 116.484,420.819 117.318,393.153 118.5,365.5C 88.0587,364.369 68.392,349.369 59.5,320.5C 61.7163,308.789 68.7163,303.955 80.5,306C 96.3466,310.836 109.847,319.336 121,331.5C 122.226,324.477 123.559,317.477 125,310.5C 129.333,306.5 133.667,306.5 138,310.5C 138.167,312.333 138.333,314.167 138.5,316C 136.05,330.765 134.55,345.598 134,360.5C 144.595,350.95 156.762,344.117 170.5,340C 185.021,338.521 191.521,345.021 190,359.5C 179.31,385.603 159.81,398.937 131.5,399.5C 131.167,413.849 131.501,428.182 132.5,442.5C 142.471,440.86 152.304,441.526 162,444.5C 177.355,439.221 191.855,440.888 205.5,449.5C 218.61,441.982 232.61,439.648 247.5,442.5C 247.385,416.826 247.719,391.159 248.5,365.5C 222.143,364.576 203.31,352.243 192,328.5C 187.961,312.543 194.127,305.043 210.5,306C 226.684,310.337 240.184,318.837 251,331.5C 252.452,324.124 254.119,316.791 256,309.5C 263.049,305.486 267.549,307.32 269.5,315C 266.565,330.414 264.732,345.914 264,361.5C 276.746,348.208 292.246,341.042 310.5,340C 320.741,345.121 323.574,352.954 319,363.5C 307.363,387.249 288.196,399.249 261.5,399.5C 261.5,413.5 261.5,427.5 261.5,441.5C 276.414,438.972 289.581,442.639 301,452.5C 313.843,442.665 328.343,439.165 344.5,442C 347.627,442.392 350.627,443.225 353.5,444.5C 361.27,441.314 369.27,440.314 377.5,441.5C 377.293,416.137 377.96,390.804 379.5,365.5C 351.313,364.136 331.813,350.469 321,324.5C 319.662,312.859 324.828,306.192 336.5,304.5C 354.5,308.749 369.667,317.749 382,331.5C 382.903,324.079 384.237,316.746 386,309.5C 390.604,305.468 394.937,305.801 399,310.5C 399.167,312 399.333,313.5 399.5,315C 396.681,330.061 395.181,345.228 395,360.5C 406.487,349.525 419.987,342.191 435.5,338.5C 445.208,339.542 450.542,344.875 451.5,354.5C 450.541,362.25 447.541,369.083 442.5,375C 439.546,376.719 436.546,376.885 433.5,375.5 Z"/></g>
<g><path style="opacity:1" fill="#94d108" d="M 73.5,319.5 C 91.8732,323.715 105.873,333.882 115.5,350C 99.7885,349.727 87.2885,343.227 78,330.5C 75.9281,327.029 74.4281,323.362 73.5,319.5 Z"/></g>
<g><path style="opacity:1" fill="#94d108" d="M 204.5,319.5 C 222.342,323.909 236.009,333.909 245.5,349.5C 230.194,349.429 218.028,343.096 209,330.5C 206.928,327.029 205.428,323.362 204.5,319.5 Z"/></g>
<g><path style="opacity:1" fill="#94d108" d="M 335.5,319.5 C 353.873,323.715 367.873,333.882 377.5,350C 361.788,349.727 349.288,343.227 340,330.5C 337.928,327.029 336.428,323.362 335.5,319.5 Z"/></g>
<g><path style="opacity:1" fill="#94d208" d="M 170.5,354.5 C 172.288,354.215 173.955,354.548 175.5,355.5C 167.691,373.675 154.024,383.008 134.5,383.5C 142.947,369.383 154.947,359.716 170.5,354.5 Z"/></g>
<g><path style="opacity:1" fill="#95d308" d="M 304.5,353.5 C 305.497,353.47 306.164,353.97 306.5,355C 299.241,373.946 285.574,383.446 265.5,383.5C 275.02,368.914 288.02,358.914 304.5,353.5 Z"/></g>
<g><path style="opacity:0.989" fill="#95d308" d="M 433.5,375.5 C 428.948,381.048 423.281,385.048 416.5,387.5C 415.684,385.856 414.35,384.69 412.5,384C 407.412,383.427 402.412,383.927 397.5,385.5C 396.833,385.167 396.167,384.833 395.5,384.5C 405.135,368.34 419.135,358.007 437.5,353.5C 435.83,359.005 433.496,364.171 430.5,369C 430.84,371.511 431.84,373.678 433.5,375.5 Z"/></g>
<g><path style="opacity:1" fill="#f2a66a" d="M 417.5,478.5 C 311.167,479.833 204.833,479.833 98.5,478.5C 101.198,477.857 103.865,477.024 106.5,476C 120.722,456.54 139.055,451.373 161.5,460.5C 165.074,460.031 168.408,458.864 171.5,457C 176.5,456.333 181.5,456.333 186.5,457C 192.857,459.393 198.69,462.56 204,466.5C 211.149,462.681 218.649,459.514 226.5,457C 231.167,456.333 235.833,456.333 240.5,457C 244.817,458.329 249.15,459.495 253.5,460.5C 270.154,453.219 284.488,456.386 296.5,470C 299.167,470.667 301.833,470.667 304.5,470C 318.971,455.707 335.471,452.874 354,461.5C 370.397,453.773 384.564,456.606 396.5,470C 404.24,471.187 411.24,474.02 417.5,478.5 Z"/></g>
<g><path style="opacity:1" fill="#7d472d" d="M 98.5,478.5 C 204.833,479.833 311.167,479.833 417.5,478.5C 418.043,478.56 418.376,478.893 418.5,479.5C 311.5,480.833 204.5,480.833 97.5,479.5C 97.6236,478.893 97.9569,478.56 98.5,478.5 Z"/></g>
</svg>
