<?xml version="1.0" encoding="UTF-8"?>
<!DOCTYPE svg PUBLIC "-//W3C//DTD SVG 1.1//EN" "http://www.w3.org/Graphics/SVG/1.1/DTD/svg11.dtd">
<svg xmlns="http://www.w3.org/2000/svg" version="1.1" width="512px" height="512px" style="shape-rendering:geometricPrecision; text-rendering:geometricPrecision; image-rendering:optimizeQuality; fill-rule:evenodd; clip-rule:evenodd" xmlns:xlink="http://www.w3.org/1999/xlink">
<g><path style="opacity:0.968" fill="#FFFFFF" d="M 511.5,37.5 C 511.5,104.167 511.5,170.833 511.5,237.5C 506.081,244.85 499.415,246.184 491.5,241.5C 489.297,239.705 488.131,237.371 488,234.5C 487.667,170.5 487.333,106.5 487,42.5C 486.214,39.4173 484.381,37.2506 481.5,36C 332.534,34.341 183.534,34.0076 34.5,35C 29.4813,35.4219 25.9813,37.9219 24,42.5C 23.3333,130.167 23.3333,217.833 24,305.5C 25.3956,310.228 28.5623,312.728 33.5,313C 85.8333,313.333 138.167,313.667 190.5,314C 197.07,317.655 199.237,323.155 197,330.5C 195.332,334.165 192.499,336.332 188.5,337C 135.5,337.667 82.5,337.667 29.5,337C 13.8945,334.384 3.89445,325.551 -0.5,310.5C -0.5,219.5 -0.5,128.5 -0.5,37.5C 4.13753,22.1586 14.4709,13.3252 30.5,11C 180.5,10.3333 330.5,10.3333 480.5,11C 496.529,13.3252 506.862,22.1586 511.5,37.5 Z M 246.5,128.5 C 276.202,126.395 294.369,139.728 301,168.5C 302.301,191.515 292.468,207.681 271.5,217C 248.336,223.834 229.836,217.334 216,197.5C 204.676,173.445 209.176,152.945 229.5,136C 235.032,132.894 240.699,130.394 246.5,128.5 Z"/></g>
<g><path style="opacity:0.965" fill="#FFFFFF" d="M 76.5,57.5 C 195.5,57.3333 314.5,57.5 433.5,58C 436.583,58.786 438.749,60.6193 440,63.5C 440.6,68.0067 441.767,72.3401 443.5,76.5C 444.5,77.3333 445.5,78.1667 446.5,79C 450.5,80 454.5,81 458.5,82C 461.553,84.0514 463.386,86.8848 464,90.5C 464.975,128.213 464.642,165.88 463,203.5C 457.9,209.879 451.733,211.046 444.5,207C 442.951,205.786 441.785,204.286 441,202.5C 440.667,169.167 440.333,135.833 440,102.5C 430.696,98.3622 423.862,91.6955 419.5,82.5C 309.835,81.3333 200.168,81.1667 90.5,82C 86.3333,91.5 79.5,98.3333 70,102.5C 69.3333,150.167 69.3333,197.833 70,245.5C 79.3044,249.638 86.1378,256.304 90.5,265.5C 126.829,266.333 163.162,266.833 199.5,267C 209.23,270.504 211.73,277.004 207,286.5C 205.786,288.049 204.286,289.215 202.5,290C 160.167,290.667 117.833,290.667 75.5,290C 73,288.833 71.1667,287 70,284.5C 69.2116,280.427 68.2116,276.427 67,272.5C 65.786,270.951 64.286,269.785 62.5,269C 57.9873,268.194 53.654,266.861 49.5,265C 47.683,263.2 46.5163,261.034 46,258.5C 45.3333,202.167 45.3333,145.833 46,89.5C 46.5163,86.9664 47.683,84.7998 49.5,83C 54.0372,81.2429 58.7039,79.9095 63.5,79C 64.6667,77.8333 65.8333,76.6667 67,75.5C 68.2116,71.5733 69.2116,67.5733 70,63.5C 71.4936,60.6865 73.6603,58.6865 76.5,57.5 Z"/></g>
<g><path style="opacity:0.953" fill="#FFFFFF" d="M 250.5,103.5 C 290.99,104.165 315.824,124.165 325,163.5C 328.188,198.601 314.021,223.768 282.5,239C 247.884,250.724 219.384,242.224 197,213.5C 184.062,191.845 182.062,169.179 191,145.5C 203.299,120.683 223.133,106.683 250.5,103.5 Z M 246.5,128.5 C 240.699,130.394 235.032,132.894 229.5,136C 209.176,152.945 204.676,173.445 216,197.5C 229.836,217.334 248.336,223.834 271.5,217C 292.468,207.681 302.301,191.515 301,168.5C 294.369,139.728 276.202,126.395 246.5,128.5 Z"/></g>
<g><path style="opacity:0.953" fill="#FFFFFF" d="M 133.5,150.5 C 147.607,148.631 157.107,154.297 162,167.5C 164.674,181.991 159.174,191.825 145.5,197C 124.874,198.708 115.041,189.208 116,168.5C 118.683,159.318 124.517,153.318 133.5,150.5 Z"/></g>
<g><path style="opacity:0.953" fill="#FFFFFF" d="M 366.5,150.5 C 386.645,149.811 396.145,159.477 395,179.5C 388.013,197.056 375.846,201.889 358.5,194C 347.793,184.559 345.627,173.392 352,160.5C 355.689,155.28 360.522,151.947 366.5,150.5 Z"/></g>
<g><path style="opacity:0.947" fill="#FFFFFF" d="M 394.5,220.5 C 435.324,217.494 466.49,233.161 488,267.5C 503.502,298.983 503.169,330.316 487,361.5C 484.861,364.939 482.361,368.106 479.5,371C 466.675,374.504 460.841,369.67 462,356.5C 465.939,348.955 469.606,341.288 473,333.5C 481.25,294.5 467.417,266.333 431.5,249C 420.83,244.98 409.83,243.647 398.5,245C 389.322,246.336 380.488,248.836 372,252.5C 362.066,250.978 358.4,245.311 361,235.5C 362.122,233.376 363.622,231.543 365.5,230C 374.855,225.492 384.522,222.325 394.5,220.5 Z"/></g>
<g><path style="opacity:0.948" fill="#FFFFFF" d="M 291.5,243.5 C 319.184,241.33 343.517,249.163 364.5,267C 373.029,273.2 374.362,280.533 368.5,289C 363.581,292.532 358.581,292.865 353.5,290C 331.085,268.231 305.085,262.565 275.5,273C 241.879,290.076 228.379,317.243 235,354.5C 238.601,367.712 245.268,379.045 255,388.5C 259.174,398.682 255.84,405.016 245,407.5C 243.189,406.922 241.355,406.422 239.5,406C 212.16,379.963 202.993,348.463 212,311.5C 220.552,283.557 238.052,263.391 264.5,251C 273.406,247.693 282.406,245.193 291.5,243.5 Z"/></g>
<g><path style="opacity:0.931" fill="#FFFFFF" d="M 402.5,278.5 C 409.515,276.926 414.681,279.26 418,285.5C 418.667,292.833 418.667,300.167 418,307.5C 411.137,316.329 403.803,316.662 396,308.5C 394,300.5 394,292.5 396,284.5C 397.494,281.686 399.66,279.686 402.5,278.5 Z"/></g>
<g><path style="opacity:0.906" fill="#FFFFFF" d="M 299.5,301.5 C 311.5,301.989 316,307.989 313,319.5C 306.299,327.061 299.299,327.395 292,320.5C 287.985,311.542 290.485,305.208 299.5,301.5 Z"/></g>
<g><path style="opacity:0.952" fill="#FFFFFF" d="M 348.5,313.5 C 394.477,310.893 427.31,330.226 447,371.5C 461.567,414.743 451.734,451.243 417.5,481C 378.63,507.225 339.963,506.892 301.5,480C 265.34,446.198 257.506,406.698 278,361.5C 294.152,334.677 317.652,318.677 348.5,313.5 Z M 352.5,337.5 C 385.321,336.485 409.155,350.485 424,379.5C 435.008,410.631 428.508,437.465 404.5,460C 373.741,482.098 343.408,481.432 313.5,458C 289.212,432.617 284.712,404.117 300,372.5C 312.297,352.941 329.797,341.274 352.5,337.5 Z"/></g>
<g><path style="opacity:0.951" fill="#FFFFFF" d="M 356.5,371.5 C 364.834,370.235 370.001,373.569 372,381.5C 372.667,398.5 372.667,415.5 372,432.5C 370.482,438.677 366.482,442.01 360,442.5C 354.997,442.171 351.331,439.837 349,435.5C 348.333,416.5 348.333,397.5 349,378.5C 350.767,375.228 353.267,372.895 356.5,371.5 Z"/></g>
</svg>
